<svg xmlns="http://www.w3.org/2000/svg" viewBox="0 0 1920 1080">
  <defs>
    <linearGradient id="sky" x1="0%" y1="0%" x2="0%" y2="100%">
      <stop offset="0%" style="stop-color:#87CEEB"/>
      <stop offset="60%" style="stop-color:#e0f4ff"/>
      <stop offset="100%" style="stop-color:#f5f9fc"/>
    </linearGradient>
    <linearGradient id="grass" x1="0%" y1="0%" x2="0%" y2="100%">
      <stop offset="0%" style="stop-color:#4ade80"/>
      <stop offset="100%" style="stop-color:#3a5a40"/>
    </linearGradient>
    <linearGradient id="trees" x1="0%" y1="0%" x2="0%" y2="100%">
      <stop offset="0%" style="stop-color:#2d4731"/>
      <stop offset="100%" style="stop-color:#1a2e1f"/>
    </linearGradient>
  </defs>
  <rect fill="url(#sky)" width="1920" height="1080"/>
  <ellipse cx="200" cy="700" rx="400" ry="200" fill="url(#trees)" opacity="0.8"/>
  <ellipse cx="1700" cy="650" rx="350" ry="180" fill="url(#trees)" opacity="0.9"/>
  <ellipse cx="1000" cy="800" rx="500" ry="150" fill="url(#trees)" opacity="0.7"/>
  <rect y="750" width="1920" height="330" fill="url(#grass)"/>
  <circle cx="150" cy="780" r="60" fill="#588157"/>
  <circle cx="120" cy="760" r="50" fill="#4a7c4e"/>
  <circle cx="180" cy="770" r="45" fill="#3a5a40"/>
  <circle cx="1780" cy="800" r="70" fill="#588157"/>
  <circle cx="1750" cy="780" r="55" fill="#4a7c4e"/>
  <circle cx="1820" cy="790" r="50" fill="#3a5a40"/>
  <circle cx="600" cy="850" r="40" fill="#4a7c4e"/>
  <circle cx="1300" cy="870" r="55" fill="#588157"/>
  <rect x="850" y="820" width="200" height="100" fill="#8B4513" opacity="0.3"/>
  <rect x="870" y="700" width="160" height="120" fill="#d4a017" opacity="0.2"/>
</svg>