<svg xmlns="http://www.w3.org/2000/svg" viewBox="0 0 400 300">
  <rect fill="#e3f2fd" width="400" height="300"/>
  <path d="M0 200 Q100 180 200 200 Q300 220 400 200 L400 300 L0 300 Z" fill="#4ade80"/>
  <path d="M50 250 L150 250 L150 240 Q150 230 140 230 L60 230 Q50 230 50 240 Z" fill="#546e7a"/>
  <ellipse cx="100" cy="245" rx="40" ry="8" fill="#37474f"/>
  <path d="M250 260 L350 260 L350 250 Q350 240 340 240 L260 240 Q250 240 250 250 Z" fill="#546e7a"/>
  <ellipse cx="300" cy="255" rx="40" ry="8" fill="#37474f"/>
  <path d="M180 220 Q200 200 220 220" stroke="#2196f3" stroke-width="4" fill="none" opacity="0.6"/>
  <circle cx="200" cy="210" r="20" fill="#64b5f6" opacity="0.4"/>
</svg>